<svg xmlns="http://www.w3.org/2000/svg" xmlns:xlink="http://www.w3.org/1999/xlink" version="1.1" width="256" height="256" viewBox="0 0 256 256" xml:space="preserve">
<desc>Created with Fabric.js 1.7.22</desc>
<defs>
</defs>
<g transform="translate(128 128) scale(0.72 0.72)" style="">
	<g style="stroke: none; stroke-width: 0; stroke-dasharray: none; stroke-linecap: butt; stroke-linejoin: miter; stroke-miterlimit: 10; fill: none; fill-rule: nonzero; opacity: 1;" transform="translate(-175.05 -175.05000000000004) scale(3.89 3.89)" >
	<path d="M 85.781 8.262 H 4.219 C 1.889 8.262 0 10.15 0 12.48 v 9.806 h 90 V 12.48 C 90 10.15 88.111 8.262 85.781 8.262 z" style="stroke: none; stroke-width: 1; stroke-dasharray: none; stroke-linecap: butt; stroke-linejoin: miter; stroke-miterlimit: 10; fill: rgb(113,150,255); fill-rule: nonzero; opacity: 1;" transform=" matrix(1 0 0 1 0 0) " stroke-linecap="round" />
	<path d="M 0 22.286 V 77.52 c 0 2.33 1.889 4.219 4.219 4.219 h 81.563 c 2.33 0 4.219 -1.889 4.219 -4.219 V 22.286 H 0 z" style="stroke: none; stroke-width: 1; stroke-dasharray: none; stroke-linecap: butt; stroke-linejoin: miter; stroke-miterlimit: 10; fill: rgb(225,230,239); fill-rule: nonzero; opacity: 1;" transform=" matrix(1 0 0 1 0 0) " stroke-linecap="round" />
	<path d="M 54.544 16.274 H 9.332 c -0.552 0 -1 -0.448 -1 -1 s 0.448 -1 1 -1 h 45.212 c 0.553 0 1 0.448 1 1 S 55.097 16.274 54.544 16.274 z" style="stroke: none; stroke-width: 1; stroke-dasharray: none; stroke-linecap: butt; stroke-linejoin: miter; stroke-miterlimit: 10; fill: rgb(238,244,255); fill-rule: nonzero; opacity: 1;" transform=" matrix(1 0 0 1 0 0) " stroke-linecap="round" />
	<path d="M 59.859 72.619 H 30.141 c -2.633 0 -4.767 -2.134 -4.767 -4.767 v 0 c 0 -2.633 2.134 -4.767 4.767 -4.767 h 29.718 c 2.633 0 4.767 2.134 4.767 4.767 v 0 C 64.626 70.485 62.492 72.619 59.859 72.619 z" style="stroke: none; stroke-width: 1; stroke-dasharray: none; stroke-linecap: butt; stroke-linejoin: miter; stroke-miterlimit: 10; fill: rgb(255,255,255); fill-rule: nonzero; opacity: 1;" transform=" matrix(1 0 0 1 0 0) " stroke-linecap="round" />
	<path d="M 80.112 16.274 H 75.81 c -0.553 0 -1 -0.448 -1 -1 s 0.447 -1 1 -1 h 4.303 c 0.553 0 1 0.448 1 1 S 80.665 16.274 80.112 16.274 z" style="stroke: none; stroke-width: 1; stroke-dasharray: none; stroke-linecap: butt; stroke-linejoin: miter; stroke-miterlimit: 10; fill: rgb(238,244,255); fill-rule: nonzero; opacity: 1;" transform=" matrix(1 0 0 1 0 0) " stroke-linecap="round" />
	<circle cx="44.998" cy="42.958" r="13.188" style="stroke: none; stroke-width: 1; stroke-dasharray: none; stroke-linecap: butt; stroke-linejoin: miter; stroke-miterlimit: 10; fill: rgb(255,255,255); fill-rule: nonzero; opacity: 1;" transform="  matrix(1 0 0 1 0 0) "/>
	<circle cx="45.001999999999995" cy="40.872" r="4.672" style="stroke: none; stroke-width: 1; stroke-dasharray: none; stroke-linecap: butt; stroke-linejoin: miter; stroke-miterlimit: 10; fill: rgb(113,150,255); fill-rule: nonzero; opacity: 1;" transform="  matrix(1 0 0 1 0 0) "/>
	<path d="M 45 45.546 c -4.189 0 -7.586 3.396 -7.586 7.586 c 0 0.211 0.015 0.418 0.032 0.624 c 2.141 1.5 4.742 2.387 7.554 2.387 c 2.812 0 5.414 -0.887 7.554 -2.387 c 0.017 -0.206 0.032 -0.413 0.032 -0.624 C 52.586 48.942 49.189 45.546 45 45.546 z" style="stroke: none; stroke-width: 1; stroke-dasharray: none; stroke-linecap: butt; stroke-linejoin: miter; stroke-miterlimit: 10; fill: rgb(113,150,255); fill-rule: nonzero; opacity: 1;" transform=" matrix(1 0 0 1 0 0) " stroke-linecap="round" />
	<path d="M 42.123 68.852 h -2.428 c -0.552 0 -1 -0.447 -1 -1 s 0.448 -1 1 -1 h 2.428 c 0.552 0 1 0.447 1 1 S 42.675 68.852 42.123 68.852 z" style="stroke: none; stroke-width: 1; stroke-dasharray: none; stroke-linecap: butt; stroke-linejoin: miter; stroke-miterlimit: 10; fill: rgb(113,150,255); fill-rule: nonzero; opacity: 1;" transform=" matrix(1 0 0 1 0 0) " stroke-linecap="round" />
	<path d="M 33.941 68.852 h -2.428 c -0.552 0 -1 -0.447 -1 -1 s 0.448 -1 1 -1 h 2.428 c 0.552 0 1 0.447 1 1 S 34.494 68.852 33.941 68.852 z" style="stroke: none; stroke-width: 1; stroke-dasharray: none; stroke-linecap: butt; stroke-linejoin: miter; stroke-miterlimit: 10; fill: rgb(113,150,255); fill-rule: nonzero; opacity: 1;" transform=" matrix(1 0 0 1 0 0) " stroke-linecap="round" />
	<path d="M 50.305 68.852 h -2.428 c -0.553 0 -1 -0.447 -1 -1 s 0.447 -1 1 -1 h 2.428 c 0.553 0 1 0.447 1 1 S 50.857 68.852 50.305 68.852 z" style="stroke: none; stroke-width: 1; stroke-dasharray: none; stroke-linecap: butt; stroke-linejoin: miter; stroke-miterlimit: 10; fill: rgb(113,150,255); fill-rule: nonzero; opacity: 1;" transform=" matrix(1 0 0 1 0 0) " stroke-linecap="round" />
	<path d="M 58.486 68.852 h -2.428 c -0.553 0 -1 -0.447 -1 -1 s 0.447 -1 1 -1 h 2.428 c 0.553 0 1 0.447 1 1 S 59.039 68.852 58.486 68.852 z" style="stroke: none; stroke-width: 1; stroke-dasharray: none; stroke-linecap: butt; stroke-linejoin: miter; stroke-miterlimit: 10; fill: rgb(113,150,255); fill-rule: nonzero; opacity: 1;" transform=" matrix(1 0 0 1 0 0) " stroke-linecap="round" />
</g>
</g>
</svg>